<svg width="88" height="13" viewBox="0 0 88 13" fill="none" xmlns="http://www.w3.org/2000/svg">
    <path fill-rule="evenodd" clip-rule="evenodd" d="M83.0006 9.33427L86.5252 5.7966L87.2326 6.50141L83.3557 10.3928C83.2622 10.4866 83.1353 10.5394 83.0029 10.5397C82.8704 10.5399 82.7433 10.4876 82.6495 10.3941L78.7581 6.51716L79.4629 5.80972L83.0006 9.33427Z" fill="black"/>
    <path fill-rule="evenodd" clip-rule="evenodd" d="M6.10033 11.9893C6.10033 11.9893 2.16675 8.67643 2.16675 5.41668C2.16675 4.26741 2.62329 3.16521 3.43595 2.35255C4.24861 1.53989 5.35081 1.08334 6.50008 1.08334C7.64935 1.08334 8.75155 1.53989 9.56421 2.35255C10.3769 3.16521 10.8334 4.26741 10.8334 5.41668C10.8334 8.67643 6.89983 11.9893 6.89983 11.9893C6.681 12.1908 6.32079 12.1886 6.10033 11.9893ZM6.50008 7.31251C6.74905 7.31251 6.99557 7.26347 7.22559 7.1682C7.4556 7.07292 7.66459 6.93328 7.84064 6.75723C8.01668 6.58119 8.15633 6.37219 8.2516 6.14218C8.34688 5.91217 8.39592 5.66564 8.39592 5.41668C8.39592 5.16771 8.34688 4.92119 8.2516 4.69117C8.15633 4.46116 8.01668 4.25216 7.84064 4.07612C7.66459 3.90008 7.4556 3.76043 7.22559 3.66516C6.99557 3.56988 6.74905 3.52084 6.50008 3.52084C5.99728 3.52084 5.51506 3.72058 5.15952 4.07612C4.80399 4.43166 4.60425 4.91387 4.60425 5.41668C4.60425 5.91948 4.80399 6.4017 5.15952 6.75723C5.51506 7.11277 5.99728 7.31251 6.50008 7.31251Z" fill="#F32805"/>
</svg>
