<svg width="19" height="19" viewBox="0 0 19 19" fill="none" xmlns="http://www.w3.org/2000/svg">
    <path d="M15.8334 3.16669H3.16671C2.29587 3.16669 1.59129 3.87919 1.59129 4.75002L1.58337 14.25C1.58337 15.1209 2.29587 15.8334 3.16671 15.8334H15.8334C16.7042 15.8334 17.4167 15.1209 17.4167 14.25V4.75002C17.4167 3.87919 16.7042 3.16669 15.8334 3.16669ZM15.5167 6.53127L9.91962 10.0304C9.66629 10.1888 9.33379 10.1888 9.08046 10.0304L3.48337 6.53127C3.40399 6.48671 3.33448 6.4265 3.27904 6.3543C3.2236 6.28209 3.18338 6.19939 3.16083 6.11119C3.13828 6.02299 3.13386 5.93114 3.14783 5.84118C3.16181 5.75122 3.19389 5.66504 3.24214 5.58784C3.29039 5.51064 3.3538 5.44404 3.42853 5.39206C3.50327 5.34008 3.58777 5.3038 3.67693 5.28542C3.76609 5.26705 3.85806 5.26695 3.94725 5.28515C4.03645 5.30334 4.12103 5.33944 4.19587 5.39127L9.50004 8.70835L14.8042 5.39127C14.879 5.33944 14.9636 5.30334 15.0528 5.28515C15.142 5.26695 15.234 5.26705 15.3231 5.28542C15.4123 5.3038 15.4968 5.34008 15.5715 5.39206C15.6463 5.44404 15.7097 5.51064 15.7579 5.58784C15.8062 5.66504 15.8383 5.75122 15.8522 5.84118C15.8662 5.93114 15.8618 6.02299 15.8393 6.11119C15.8167 6.19939 15.7765 6.28209 15.721 6.3543C15.6656 6.4265 15.5961 6.48671 15.5167 6.53127Z" fill="#ADADAD"/>
</svg>
