<svg width="19" height="19" viewBox="0 0 19 19" fill="none" xmlns="http://www.w3.org/2000/svg">
    <path d="M9.49996 13.4584C9.91989 13.4584 10.3226 13.2915 10.6195 12.9946C10.9165 12.6977 11.0833 12.2949 11.0833 11.875C11.0833 11.4551 10.9165 11.0524 10.6195 10.7554C10.3226 10.4585 9.91989 10.2917 9.49996 10.2917C9.08003 10.2917 8.67731 10.4585 8.38037 10.7554C8.08344 11.0524 7.91663 11.4551 7.91663 11.875C7.91663 12.2949 8.08344 12.6977 8.38037 12.9946C8.67731 13.2915 9.08003 13.4584 9.49996 13.4584ZM14.25 6.33335C14.6699 6.33335 15.0726 6.50017 15.3695 6.7971C15.6665 7.09403 15.8333 7.49676 15.8333 7.91669V15.8334C15.8333 16.2533 15.6665 16.656 15.3695 16.9529C15.0726 17.2499 14.6699 17.4167 14.25 17.4167H4.74996C4.33003 17.4167 3.92731 17.2499 3.63037 16.9529C3.33344 16.656 3.16663 16.2533 3.16663 15.8334V7.91669C3.16663 7.49676 3.33344 7.09403 3.63037 6.7971C3.92731 6.50017 4.33003 6.33335 4.74996 6.33335H5.54163V4.75002C5.54163 3.70021 5.95866 2.69339 6.70099 1.95106C7.44333 1.20872 8.45014 0.791687 9.49996 0.791687C10.0198 0.791687 10.5345 0.894072 11.0147 1.093C11.495 1.29192 11.9314 1.58349 12.2989 1.95106C12.6665 2.31862 12.9581 2.75498 13.157 3.23523C13.3559 3.71548 13.4583 4.2302 13.4583 4.75002V6.33335H14.25ZM9.49996 2.37502C8.87007 2.37502 8.26598 2.62524 7.82058 3.07064C7.37518 3.51604 7.12496 4.12013 7.12496 4.75002V6.33335H11.875V4.75002C11.875 4.12013 11.6247 3.51604 11.1793 3.07064C10.7339 2.62524 10.1298 2.37502 9.49996 2.37502Z" fill="#ADADAD"/>
</svg>
