<svg width="22" height="22" viewBox="0 0 22 22" fill="none" xmlns="http://www.w3.org/2000/svg">
    <path d="M11 11C9.99163 11 9.12843 10.641 8.41038 9.92294C7.69232 9.20488 7.33329 8.34169 7.33329 7.33335C7.33329 6.32502 7.69232 5.46183 8.41038 4.74377C9.12843 4.02571 9.99163 3.66669 11 3.66669C12.0083 3.66669 12.8715 4.02571 13.5895 4.74377C14.3076 5.46183 14.6666 6.32502 14.6666 7.33335C14.6666 8.34169 14.3076 9.20488 13.5895 9.92294C12.8715 10.641 12.0083 11 11 11ZM3.66663 16.5V15.7667C3.66663 15.2472 3.80046 14.77 4.06813 14.3349C4.33579 13.8997 4.69085 13.5673 5.13329 13.3375C6.08051 12.8639 7.04301 12.5089 8.02079 12.2724C8.99857 12.0359 9.99163 11.9173 11 11.9167C12.0083 11.9161 13.0013 12.0346 13.9791 12.2724C14.9569 12.5101 15.9194 12.8651 16.8666 13.3375C17.3097 13.5667 17.665 13.8991 17.9327 14.3349C18.2004 14.7706 18.3339 15.2479 18.3333 15.7667V16.5C18.3333 17.0042 18.1539 17.4359 17.7952 17.7953C17.4365 18.1546 17.0047 18.334 16.5 18.3334H5.49996C4.99579 18.3334 4.56435 18.154 4.20563 17.7953C3.8469 17.4365 3.66724 17.0048 3.66663 16.5Z" fill="#ADADAD"/>
</svg>
