<svg width="6" height="6" viewBox="0 0 6 6" fill="none" xmlns="http://www.w3.org/2000/svg">
    <path d="M3.00011 4.75832L1.61678 5.59165C1.55567 5.63054 1.49178 5.64721 1.42511 5.64165C1.35844 5.63609 1.30011 5.61387 1.25011 5.57498C1.20011 5.53609 1.16122 5.48754 1.13344 5.42932C1.10567 5.3711 1.10011 5.30576 1.11678 5.23332L1.48344 3.65832L0.258443 2.59998C0.202887 2.54998 0.168221 2.49298 0.154443 2.42898C0.140665 2.36498 0.144776 2.30254 0.166776 2.24165C0.188776 2.18076 0.22211 2.13076 0.266776 2.09165C0.311443 2.05254 0.372554 2.02754 0.45011 2.01665L2.06678 1.87498L2.69178 0.39165C2.71955 0.324984 2.76267 0.274984 2.82111 0.24165C2.87955 0.208317 2.93922 0.19165 3.00011 0.19165C3.061 0.19165 3.12067 0.208317 3.17911 0.24165C3.23755 0.274984 3.28067 0.324984 3.30844 0.39165L3.93344 1.87498L5.55011 2.01665C5.62789 2.02776 5.689 2.05276 5.73344 2.09165C5.77789 2.13054 5.81122 2.18054 5.83344 2.24165C5.85567 2.30276 5.85989 2.36532 5.84611 2.42932C5.83233 2.49332 5.79755 2.55021 5.74178 2.59998L4.51678 3.65832L4.88344 5.23332C4.90011 5.30554 4.89455 5.37087 4.86678 5.42932C4.839 5.48776 4.80011 5.53632 4.75011 5.57498C4.70011 5.61365 4.64178 5.63587 4.57511 5.64165C4.50844 5.64743 4.44455 5.63076 4.38344 5.59165L3.00011 4.75832Z" fill="#FFA600"/>
</svg>
